<svg xmlns="http://www.w3.org/2000/svg" width="60" height="60" viewBox="0 0 60 60" aria-hidden="true">
  <defs>
    <filter id="softGlow" x="-50%" y="-50%" width="200%" height="200%">
      <feGaussianBlur stdDeviation="2" result="b"/>
      <feMerge>
        <feMergeNode in="b"/>
        <feMergeNode in="SourceGraphic"/>
      </feMerge>
    </filter>

    <radialGradient id="coreGrad" cx="50%" cy="50%" r="50%">
      <stop offset="0%" stop-color="#ffb3b3" />
      <stop offset="35%" stop-color="#ff4a4a" />
      <stop offset="100%" stop-color="#6b0000" />
    </radialGradient>

    <linearGradient id="metal" x1="0%" y1="0%" x2="100%" y2="100%">
      <stop offset="0%" stop-color="#111"/>
      <stop offset="100%" stop-color="#2a2a2a"/>
    </linearGradient>

    <linearGradient id="rim" x1="0%" y1="0%" x2="0%" y2="100%">
      <stop offset="0%" stop-color="#4a0000"/>
      <stop offset="100%" stop-color="#120000"/>
    </linearGradient>
  </defs>

  <!-- main dark body -->
  <g filter="url(#softGlow)">
    <circle cx="30" cy="30" r="22" fill="url(#metal)" stroke="url(#rim)" stroke-width="4" />

    <!-- jagged spikes around the rim -->
    <g fill="#2b0000" stroke="#330000" stroke-width="0.6">
      <path d="M30 6 L34 14 L30 12 L26 14 Z" transform="rotate(0 30 30) translate(0,0)"/>
      <path d="M30 6 L36 16 L30 12 L24 16 Z" transform="rotate(45 30 30)"/>
      <path d="M30 6 L36 16 L30 12 L24 16 Z" transform="rotate(90 30 30)"/>
      <path d="M30 6 L36 16 L30 12 L24 16 Z" transform="rotate(135 30 30)"/>
      <path d="M30 6 L34 14 L30 12 L26 14 Z" transform="rotate(180 30 30)"/>
      <path d="M30 6 L36 16 L30 12 L24 16 Z" transform="rotate(225 30 30)"/>
      <path d="M30 6 L36 16 L30 12 L24 16 Z" transform="rotate(270 30 30)"/>
      <path d="M30 6 L36 16 L30 12 L24 16 Z" transform="rotate(315 30 30)"/>
    </g>

    <!-- inner ring with hazard strokes -->
    <circle cx="30" cy="30" r="12" fill="#1a1a1a" stroke="#660000" stroke-width="2" />

    <!-- four ominous pylons -->
    <g fill="#8b0000">
      <rect x="28" y="6" width="4" height="12" rx="1" transform="translate(0,0)" />
      <rect x="28" y="42" width="4" height="12" rx="1" transform="translate(0,0)" />
      <rect x="6" y="28" width="12" height="4" rx="1" transform="translate(0,0)" />
      <rect x="42" y="28" width="12" height="4" rx="1" transform="translate(0,0)" />
    </g>

    <!-- teeth / saw pattern on inner rim -->
    <g fill="#300000">
      <path d="M30 18 l1.8 -3 l1 3 l1.8 -3 l1 3 l1.8 -3 l1 3 l1.8 -3 l1 3 l1.8 -3 l-12 0 z" transform="translate(6,6) rotate(0 30 30)" opacity="0.85" />
    </g>

    <!-- glowing evil core -->
    <g>
      <circle cx="30" cy="30" r="6.6" fill="url(#coreGrad)" />
      <circle cx="30" cy="30" r="3.2" fill="#fff5f5" opacity="0.95" />
    </g>

    <!-- subtle radial highlights to imply menace -->
    <path d="M30 8 C40 8, 50 20, 50 30" stroke="#5a0000" stroke-width="1" stroke-opacity="0.12" fill="none" />
    <path d="M10 30 C10 20, 20 8, 30 8" stroke="#5a0000" stroke-width="1" stroke-opacity="0.12" fill="none" />

    <!-- small red lights / sensors -->
    <circle cx="22" cy="24" r="1.1" fill="#ff7a7a" />
    <circle cx="38" cy="24" r="1.1" fill="#ff7a7a" />
    <circle cx="30" cy="14" r="1.1" fill="#ff7a7a" />
  </g>
</svg>
